<?xml version="1.0" encoding="UTF-8" standalone="no"?>
<!DOCTYPE svg PUBLIC "-//W3C//DTD SVG 1.1//EN" "http://www.w3.org/Graphics/SVG/1.1/DTD/svg11.dtd">
<!-- 由 Microsoft Visio, SVG Export 生成 论文绘图.svg Page-1 -->
<svg xmlns="http://www.w3.org/2000/svg" xmlns:xlink="http://www.w3.org/1999/xlink" xmlns:ev="http://www.w3.org/2001/xml-events"
		xmlns:v="http://schemas.microsoft.com/visio/2003/SVGExtensions/" width="11.6929in" height="8.26772in"
		viewBox="0 0 841.89 595.276" xml:space="preserve" color-interpolation-filters="sRGB" class="st10">
	<v:documentProperties v:langID="2052" v:metric="true" v:viewMarkup="false">
		<v:userDefs>
			<v:ud v:nameU="msvSubprocessMaster" v:prompt="" v:val="VT4(Rectangle)"/>
			<v:ud v:nameU="msvNoAutoConnect" v:val="VT0(1):26"/>
		</v:userDefs>
	</v:documentProperties>

	<style type="text/css">
	<![CDATA[
		.st1 {visibility:visible}
		.st2 {fill:none;filter:url(#filter_2);stroke:#5b9bd5;stroke-opacity:0.22}
		.st3 {fill:#5b9bd5;filter:url(#filter_2);font-family:宋体;font-size:0.833336em;opacity:0.219608}
		.st4 {fill:none;stroke:#5b9bd5;stroke-width:1.5}
		.st5 {fill:#000000;font-family:宋体;font-size:0.833336em}
		.st6 {marker-end:url(#mrkr4-30);stroke:#000000;stroke-linecap:round;stroke-linejoin:round;stroke-width:1}
		.st7 {fill:#000000;fill-opacity:1;stroke:#000000;stroke-opacity:1;stroke-width:0.28409090909091}
		.st8 {fill:none;stroke:#c5e0b3;stroke-width:1.5}
		.st9 {marker-start:url(#mrkr4-57);stroke:#000000;stroke-linecap:round;stroke-linejoin:round;stroke-width:1}
		.st10 {fill:none;fill-rule:evenodd;font-size:12px;overflow:visible;stroke-linecap:square;stroke-miterlimit:3}
	]]>
	</style>

	<defs id="Markers">
		<g id="lend4">
			<path d="M 2 1 L 0 0 L 2 -1 L 2 1 " style="stroke:none"/>
		</g>
		<marker id="mrkr4-30" class="st7" v:arrowType="4" v:arrowSize="2" v:setback="7.04" refX="-7.04" orient="auto"
				markerUnits="strokeWidth" overflow="visible">
			<use xlink:href="#lend4" transform="scale(-3.52,-3.52) "/>
		</marker>
		<marker id="mrkr4-57" class="st7" v:arrowType="4" v:arrowSize="2" v:setback="6.68" refX="6.68" orient="auto"
				markerUnits="strokeWidth" overflow="visible">
			<use xlink:href="#lend4" transform="scale(3.52) "/>
		</marker>
	</defs>
	<defs id="Filters">
		<filter id="filter_2">
			<feGaussianBlur stdDeviation="2"/>
		</filter>
	</defs>
	<g v:mID="0" v:index="1" v:groupContext="foregroundPage">
		<v:userDefs>
			<v:ud v:nameU="msvThemeOrder" v:val="VT0(0):26"/>
		</v:userDefs>
		<title>页-1</title>
		<v:pageProperties v:drawingScale="0.0393701" v:pageScale="0.0393701" v:drawingUnits="24" v:shadowOffsetX="8.50394"
				v:shadowOffsetY="-8.50394"/>
		<v:layer v:name="连接线" v:index="0"/>
		<g id="shape1-1" v:mID="1" v:groupContext="shape" transform="translate(189.213,-246.294)">
			<title>矩形</title>
			<desc>相机外参标定模块</desc>
			<v:userDefs>
				<v:ud v:nameU="visVersion" v:val="VT0(15):26"/>
			</v:userDefs>
			<v:textBlock v:margins="rect(4,4,4,4)" v:tabSpace="42.5197" v:verticalText="true"/>
			<v:textRect cx="17.0079" cy="543.932" width="34.02" height="102.687"/>
			<g id="shadow1-2" v:groupContext="shadow" v:shadowOffsetX="0.345598" v:shadowOffsetY="-1.97279" v:shadowType="1"
					transform="matrix(1,0,0,1,0.345598,1.97279)" class="st1">
				<rect x="0" y="492.588" width="34.0157" height="102.687" class="st2"/>
				<text x="17.01" y="503.93" writing-mode="tb-rl" class="st3" v:langID="2052"><v:paragraph v:horizAlign="1"/><v:tabList/>相机外参标定模块</text>			</g>
			<rect x="0" y="492.588" width="34.0157" height="102.687" class="st4"/>
			<text x="17.01" y="503.93" writing-mode="tb-rl" class="st5" v:langID="2052"><v:paragraph v:horizAlign="1"/><v:tabList/>相机外参标定模块</text>		</g>
		<g id="shape3-9" v:mID="3" v:groupContext="shape" transform="translate(320.315,-283.785)">
			<title>矩形.3</title>
			<desc>跟踪定位模块</desc>
			<v:userDefs>
				<v:ud v:nameU="visVersion" v:val="VT0(15):26"/>
			</v:userDefs>
			<v:textBlock v:margins="rect(4,4,4,4)" v:tabSpace="42.5197" v:verticalText="true"/>
			<v:textRect cx="17.0079" cy="543.932" width="34.02" height="102.687"/>
			<g id="shadow3-10" v:groupContext="shadow" v:shadowOffsetX="0.345598" v:shadowOffsetY="-1.97279" v:shadowType="1"
					transform="matrix(1,0,0,1,0.345598,1.97279)" class="st1">
				<rect x="0" y="492.588" width="34.0157" height="102.687" class="st2"/>
				<text x="17.01" y="513.93" writing-mode="tb-rl" class="st3" v:langID="2052"><v:paragraph v:horizAlign="1"/><v:tabList/>跟踪定位模块</text>			</g>
			<rect x="0" y="492.588" width="34.0157" height="102.687" class="st4"/>
			<text x="17.01" y="513.93" writing-mode="tb-rl" class="st5" v:langID="2052"><v:paragraph v:horizAlign="1"/><v:tabList/>跟踪定位模块</text>		</g>
		<g id="shape4-17" v:mID="4" v:groupContext="shape" transform="translate(425.197,-283.785)">
			<title>矩形.4</title>
			<desc>可视化模块</desc>
			<v:userDefs>
				<v:ud v:nameU="visVersion" v:val="VT0(15):26"/>
			</v:userDefs>
			<v:textBlock v:margins="rect(4,4,4,4)" v:tabSpace="42.5197" v:verticalText="true"/>
			<v:textRect cx="17.0079" cy="543.932" width="34.02" height="102.687"/>
			<g id="shadow4-18" v:groupContext="shadow" v:shadowOffsetX="0.345598" v:shadowOffsetY="-1.97279" v:shadowType="1"
					transform="matrix(1,0,0,1,0.345598,1.97279)" class="st1">
				<rect x="0" y="492.588" width="34.0157" height="102.687" class="st2"/>
				<text x="17.01" y="518.93" writing-mode="tb-rl" class="st3" v:langID="2052"><v:paragraph v:horizAlign="1"/><v:tabList/>可视化模块</text>			</g>
			<rect x="0" y="492.588" width="34.0157" height="102.687" class="st4"/>
			<text x="17.01" y="518.93" writing-mode="tb-rl" class="st5" v:langID="2052"><v:paragraph v:horizAlign="1"/><v:tabList/>可视化模块</text>		</g>
		<g id="shape5-25" v:mID="5" v:groupContext="shape" v:layerMember="0" transform="translate(223.228,-290.551)">
			<title>动态连接线</title>
			<path d="M0 588.19 L20.6 588.19" class="st6"/>
		</g>
		<g id="shape6-31" v:mID="6" v:groupContext="shape" v:layerMember="0" transform="translate(354.331,-328.042)">
			<title>动态连接线.6</title>
			<path d="M0 588.19 L14.22 588.19" class="st6"/>
		</g>
		<g id="shape7-36" v:mID="7" v:groupContext="shape" transform="translate(121.89,-283.145)">
			<title>圆角矩形</title>
			<desc>相机内参</desc>
			<v:userDefs>
				<v:ud v:nameU="CTypeTopLeftSnip" v:prompt="" v:val="VT0(0):5"/>
				<v:ud v:nameU="CTypeTopRightSnip" v:prompt="" v:val="VT0(0):5"/>
				<v:ud v:nameU="CTypeBotLeftSnip" v:prompt="" v:val="VT0(0):5"/>
				<v:ud v:nameU="CTypeBotRightSnip" v:prompt="" v:val="VT0(0):5"/>
				<v:ud v:nameU="CornerLockHoriz" v:prompt="" v:val="VT0(1):5"/>
				<v:ud v:nameU="CornerLockVert" v:prompt="" v:val="VT0(1):5"/>
				<v:ud v:nameU="CornerLockDiag" v:prompt="" v:val="VT0(0):5"/>
				<v:ud v:nameU="TopLeftOffset" v:prompt="" v:val="VT0(0.15748031496063):24"/>
				<v:ud v:nameU="TopRightOffset" v:prompt="" v:val="VT0(0.15748031496063):24"/>
				<v:ud v:nameU="BotLeftOffset" v:prompt="" v:val="VT0(0.15748031496063):24"/>
				<v:ud v:nameU="BotRightOffset" v:prompt="" v:val="VT0(0.15748031496063):24"/>
				<v:ud v:nameU="visVersion" v:prompt="" v:val="VT0(15):26"/>
				<v:ud v:nameU="TopLeftOffset" v:prompt="" v:val="VT0(0.047244094488189):1"/>
				<v:ud v:nameU="TopRightOffset" v:prompt="" v:val="VT0(0.047244094488189):1"/>
				<v:ud v:nameU="BotLeftOffset" v:prompt="" v:val="VT0(0.047244094488189):1"/>
				<v:ud v:nameU="BotRightOffset" v:prompt="" v:val="VT0(0.047244094488189):1"/>
			</v:userDefs>
			<v:textBlock v:margins="rect(4,4,4,4)" v:tabSpace="42.5197" v:verticalText="true"/>
			<v:textRect cx="17.0079" cy="545.509" width="34.02" height="99.5326"/>
			<g id="shadow7-37" v:groupContext="shadow" v:shadowOffsetX="0.345598" v:shadowOffsetY="-1.97279" v:shadowType="1"
					transform="matrix(1,0,0,1,0.345598,1.97279)" class="st1">
				<path d="M3.4 595.28 L30.61 595.28 A3.40152 3.40152 -180 0 0 34.02 591.87 L34.02 499.14 A3.40152 3.40152 -180 0 0
							 30.61 495.74 L3.4 495.74 A3.40152 3.40152 -180 0 0 -0 499.14 L0 591.87 A3.40152 3.40152 -180 0 0 3.4
							 595.28 Z" class="st2"/>
				<text x="17.01" y="525.51" writing-mode="tb-rl" class="st3" v:langID="2052"><v:paragraph v:horizAlign="1"/><v:tabList/>相机内参</text>			</g>
			<path d="M3.4 595.28 L30.61 595.28 A3.40152 3.40152 -180 0 0 34.02 591.87 L34.02 499.14 A3.40152 3.40152 -180 0 0 30.61
						 495.74 L3.4 495.74 A3.40152 3.40152 -180 0 0 -0 499.14 L0 591.87 A3.40152 3.40152 -180 0 0 3.4 595.28 Z"
					class="st8"/>
			<text x="17.01" y="525.51" writing-mode="tb-rl" class="st5" v:langID="2052"><v:paragraph v:horizAlign="1"/><v:tabList/>相机内参</text>		</g>
		<g id="shape9-44" v:mID="9" v:groupContext="shape" transform="translate(250.866,-255.118)">
			<title>圆角矩形.9</title>
			<desc>相机外参</desc>
			<v:userDefs>
				<v:ud v:nameU="CTypeTopLeftSnip" v:prompt="" v:val="VT0(0):5"/>
				<v:ud v:nameU="CTypeTopRightSnip" v:prompt="" v:val="VT0(0):5"/>
				<v:ud v:nameU="CTypeBotLeftSnip" v:prompt="" v:val="VT0(0):5"/>
				<v:ud v:nameU="CTypeBotRightSnip" v:prompt="" v:val="VT0(0):5"/>
				<v:ud v:nameU="CornerLockHoriz" v:prompt="" v:val="VT0(1):5"/>
				<v:ud v:nameU="CornerLockVert" v:prompt="" v:val="VT0(1):5"/>
				<v:ud v:nameU="CornerLockDiag" v:prompt="" v:val="VT0(0):5"/>
				<v:ud v:nameU="TopLeftOffset" v:prompt="" v:val="VT0(0.15748031496063):24"/>
				<v:ud v:nameU="TopRightOffset" v:prompt="" v:val="VT0(0.15748031496063):24"/>
				<v:ud v:nameU="BotLeftOffset" v:prompt="" v:val="VT0(0.15748031496063):24"/>
				<v:ud v:nameU="BotRightOffset" v:prompt="" v:val="VT0(0.15748031496063):24"/>
				<v:ud v:nameU="visVersion" v:prompt="" v:val="VT0(15):26"/>
				<v:ud v:nameU="TopLeftOffset" v:prompt="" v:val="VT0(0.047244094488189):1"/>
				<v:ud v:nameU="TopRightOffset" v:prompt="" v:val="VT0(0.047244094488189):1"/>
				<v:ud v:nameU="BotLeftOffset" v:prompt="" v:val="VT0(0.047244094488189):1"/>
				<v:ud v:nameU="BotRightOffset" v:prompt="" v:val="VT0(0.047244094488189):1"/>
			</v:userDefs>
			<v:textBlock v:margins="rect(4,4,4,4)" v:tabSpace="42.5197" v:verticalText="true"/>
			<v:textRect cx="17.0079" cy="552.756" width="34.02" height="85.0394"/>
			<g id="shadow9-45" v:groupContext="shadow" v:shadowOffsetX="0.345598" v:shadowOffsetY="-1.97279" v:shadowType="1"
					transform="matrix(1,0,0,1,0.345598,1.97279)" class="st1">
				<path d="M3.4 595.28 L30.61 595.28 A3.40152 3.40152 -180 0 0 34.02 591.87 L34.02 513.64 A3.40152 3.40152 -180 0 0
							 30.61 510.24 L3.4 510.24 A3.40152 3.40152 -180 0 0 0 513.64 L0 591.87 A3.40152 3.40152 -180 0 0 3.4
							 595.28 Z" class="st2"/>
				<text x="17.01" y="532.76" writing-mode="tb-rl" class="st3" v:langID="2052"><v:paragraph v:horizAlign="1"/><v:tabList/>相机外参</text>			</g>
			<path d="M3.4 595.28 L30.61 595.28 A3.40152 3.40152 -180 0 0 34.02 591.87 L34.02 513.64 A3.40152 3.40152 -180 0 0 30.61
						 510.24 L3.4 510.24 A3.40152 3.40152 -180 0 0 0 513.64 L0 591.87 A3.40152 3.40152 -180 0 0 3.4 595.28 Z"
					class="st8"/>
			<text x="17.01" y="532.76" writing-mode="tb-rl" class="st5" v:langID="2052"><v:paragraph v:horizAlign="1"/><v:tabList/>相机外参</text>		</g>
		<g id="shape12-52" v:mID="12" v:groupContext="shape" v:layerMember="0" transform="translate(189.213,-290.551)">
			<title>动态连接线.12</title>
			<path d="M-6.68 588.19 L-7.04 588.19 L-32.72 588.19" class="st9"/>
		</g>
		<g id="shape18-58" v:mID="18" v:groupContext="shape" v:layerMember="0" transform="translate(155.906,-371.102)">
			<title>动态连接线.18</title>
			<path d="M0 602.13 L155.95 602.58" class="st6"/>
		</g>
		<g id="shape19-63" v:mID="19" v:groupContext="shape" v:layerMember="0" transform="translate(284.882,-290.551)">
			<title>动态连接线.19</title>
			<path d="M0 588.19 L26.98 588.19" class="st6"/>
		</g>
		<g id="shape20-68" v:mID="20" v:groupContext="shape" transform="translate(375.591,-285.362)">
			<title>圆角矩形.20</title>
			<desc>机器人位姿结果集</desc>
			<v:userDefs>
				<v:ud v:nameU="CTypeTopLeftSnip" v:prompt="" v:val="VT0(0):5"/>
				<v:ud v:nameU="CTypeTopRightSnip" v:prompt="" v:val="VT0(0):5"/>
				<v:ud v:nameU="CTypeBotLeftSnip" v:prompt="" v:val="VT0(0):5"/>
				<v:ud v:nameU="CTypeBotRightSnip" v:prompt="" v:val="VT0(0):5"/>
				<v:ud v:nameU="CornerLockHoriz" v:prompt="" v:val="VT0(1):5"/>
				<v:ud v:nameU="CornerLockVert" v:prompt="" v:val="VT0(1):5"/>
				<v:ud v:nameU="CornerLockDiag" v:prompt="" v:val="VT0(0):5"/>
				<v:ud v:nameU="TopLeftOffset" v:prompt="" v:val="VT0(0.15748031496063):24"/>
				<v:ud v:nameU="TopRightOffset" v:prompt="" v:val="VT0(0.15748031496063):24"/>
				<v:ud v:nameU="BotLeftOffset" v:prompt="" v:val="VT0(0.15748031496063):24"/>
				<v:ud v:nameU="BotRightOffset" v:prompt="" v:val="VT0(0.15748031496063):24"/>
				<v:ud v:nameU="visVersion" v:prompt="" v:val="VT0(15):26"/>
				<v:ud v:nameU="TopLeftOffset" v:prompt="" v:val="VT0(0.047244094488189):1"/>
				<v:ud v:nameU="TopRightOffset" v:prompt="" v:val="VT0(0.047244094488189):1"/>
				<v:ud v:nameU="BotLeftOffset" v:prompt="" v:val="VT0(0.047244094488189):1"/>
				<v:ud v:nameU="BotRightOffset" v:prompt="" v:val="VT0(0.047244094488189):1"/>
			</v:userDefs>
			<v:textBlock v:margins="rect(4,4,4,4)" v:tabSpace="42.5197" v:verticalText="true"/>
			<v:textRect cx="17.0079" cy="545.509" width="34.02" height="99.5326"/>
			<g id="shadow20-69" v:groupContext="shadow" v:shadowOffsetX="0.345598" v:shadowOffsetY="-1.97279" v:shadowType="1"
					transform="matrix(1,0,0,1,0.345598,1.97279)" class="st1">
				<path d="M3.4 595.28 L30.61 595.28 A3.40152 3.40152 -180 0 0 34.02 591.87 L34.02 499.14 A3.40152 3.40152 -180 0 0
							 30.61 495.74 L3.4 495.74 A3.40152 3.40152 -180 0 0 -0 499.14 L0 591.87 A3.40152 3.40152 -180 0 0 3.4
							 595.28 Z" class="st2"/>
				<text x="17.01" y="505.51" writing-mode="tb-rl" class="st3" v:langID="2052"><v:paragraph v:horizAlign="1"/><v:tabList/>机器人位姿结果集</text>			</g>
			<path d="M3.4 595.28 L30.61 595.28 A3.40152 3.40152 -180 0 0 34.02 591.87 L34.02 499.14 A3.40152 3.40152 -180 0 0 30.61
						 495.74 L3.4 495.74 A3.40152 3.40152 -180 0 0 -0 499.14 L0 591.87 A3.40152 3.40152 -180 0 0 3.4 595.28 Z"
					class="st8"/>
			<text x="17.01" y="505.51" writing-mode="tb-rl" class="st5" v:langID="2052"><v:paragraph v:horizAlign="1"/><v:tabList/>机器人位姿结果集</text>		</g>
		<g id="shape21-76" v:mID="21" v:groupContext="shape" v:layerMember="0" transform="translate(409.606,-328.042)">
			<title>动态连接线.21</title>
			<path d="M0 588.19 L8.55 588.19" class="st6"/>
		</g>
		<g id="shape22-81" v:mID="22" v:groupContext="shape" transform="translate(481.89,-285.362)">
			<title>圆角矩形.22</title>
			<desc>机器人运动轨迹</desc>
			<v:userDefs>
				<v:ud v:nameU="CTypeTopLeftSnip" v:prompt="" v:val="VT0(0):5"/>
				<v:ud v:nameU="CTypeTopRightSnip" v:prompt="" v:val="VT0(0):5"/>
				<v:ud v:nameU="CTypeBotLeftSnip" v:prompt="" v:val="VT0(0):5"/>
				<v:ud v:nameU="CTypeBotRightSnip" v:prompt="" v:val="VT0(0):5"/>
				<v:ud v:nameU="CornerLockHoriz" v:prompt="" v:val="VT0(1):5"/>
				<v:ud v:nameU="CornerLockVert" v:prompt="" v:val="VT0(1):5"/>
				<v:ud v:nameU="CornerLockDiag" v:prompt="" v:val="VT0(0):5"/>
				<v:ud v:nameU="TopLeftOffset" v:prompt="" v:val="VT0(0.15748031496063):24"/>
				<v:ud v:nameU="TopRightOffset" v:prompt="" v:val="VT0(0.15748031496063):24"/>
				<v:ud v:nameU="BotLeftOffset" v:prompt="" v:val="VT0(0.15748031496063):24"/>
				<v:ud v:nameU="BotRightOffset" v:prompt="" v:val="VT0(0.15748031496063):24"/>
				<v:ud v:nameU="visVersion" v:prompt="" v:val="VT0(15):26"/>
				<v:ud v:nameU="TopLeftOffset" v:prompt="" v:val="VT0(0.047244094488189):1"/>
				<v:ud v:nameU="TopRightOffset" v:prompt="" v:val="VT0(0.047244094488189):1"/>
				<v:ud v:nameU="BotLeftOffset" v:prompt="" v:val="VT0(0.047244094488189):1"/>
				<v:ud v:nameU="BotRightOffset" v:prompt="" v:val="VT0(0.047244094488189):1"/>
			</v:userDefs>
			<v:textBlock v:margins="rect(4,4,4,4)" v:tabSpace="42.5197" v:verticalText="true"/>
			<v:textRect cx="17.0079" cy="545.509" width="34.02" height="99.5326"/>
			<g id="shadow22-82" v:groupContext="shadow" v:shadowOffsetX="0.345598" v:shadowOffsetY="-1.97279" v:shadowType="1"
					transform="matrix(1,0,0,1,0.345598,1.97279)" class="st1">
				<path d="M3.4 595.28 L30.61 595.28 A3.40152 3.40152 -180 0 0 34.02 591.87 L34.02 499.14 A3.40152 3.40152 -180 0 0
							 30.61 495.74 L3.4 495.74 A3.40152 3.40152 -180 0 0 -0 499.14 L0 591.87 A3.40152 3.40152 -180 0 0 3.4
							 595.28 Z" class="st2"/>
				<text x="17.01" y="510.51" writing-mode="tb-rl" class="st3" v:langID="2052"><v:paragraph v:horizAlign="1"/><v:tabList/>机器人运动轨迹</text>			</g>
			<path d="M3.4 595.28 L30.61 595.28 A3.40152 3.40152 -180 0 0 34.02 591.87 L34.02 499.14 A3.40152 3.40152 -180 0 0 30.61
						 495.74 L3.4 495.74 A3.40152 3.40152 -180 0 0 -0 499.14 L0 591.87 A3.40152 3.40152 -180 0 0 3.4 595.28 Z"
					class="st8"/>
			<text x="17.01" y="510.51" writing-mode="tb-rl" class="st5" v:langID="2052"><v:paragraph v:horizAlign="1"/><v:tabList/>机器人运动轨迹</text>		</g>
		<g id="shape23-89" v:mID="23" v:groupContext="shape" v:layerMember="0" transform="translate(459.213,-328.042)">
			<title>动态连接线.23</title>
			<path d="M0 588.19 L15.64 588.19" class="st6"/>
		</g>
	</g>
</svg>
